{
    "asset" : {
        "generator" : "Khronos glTF Blender I/O v3.2.43",
        "version" : "2.0"
    },
    "scene" : 0,
    "scenes" : [
        {
            "name" : "Scene",
            "nodes" : [
                0,
                6,
                7,
                8,
                9
            ]
        }
    ],
    "nodes" : [
        {
            "mesh" : 0,
            "name" : "Lifter_123-923_0_Parts_1",
            "rotation" : [
                0.7071068286895752,
                0,
                0.7071068286895752,
                4.489660379580762e-11
            ],
            "translation" : [
                100,
                -133.8488311767578,
                54.37212371826172
            ]
        },
        {
            "name" : "Node_16",
            "translation" : [
                -1.049041748046875e-05,
                0,
                -3.6954879760742188e-06
            ]
        },
        {
            "children" : [
                1
            ],
            "name" : "Node_15",
            "rotation" : [
                0.4627305269241333,
                0.823268473148346,
                -0.22264334559440613,
                0.24194912612438202
            ],
            "translation" : [
                14.898194313049316,
                85.82950592041016,
                -48.03464126586914
            ]
        },
        {
            "name" : "Node_44",
            "translation" : [
                -9.046398190548643e-06,
                -1.0980787010339554e-05,
                -99.9995346069336
            ]
        },
        {
            "name" : "Node_49"
        },
        {
            "children" : [
                3,
                4
            ],
            "name" : "Node_43",
            "rotation" : [
                0,
                0.001135537400841713,
                0,
                1
            ],
            "translation" : [
                -0.1340901106595993,
                -12.99998950958252,
                0.12365809828042984
            ]
        },
        {
            "children" : [
                2,
                5
            ],
            "name" : "Node_14",
            "rotation" : [
                -0.49999964237213135,
                0.49999964237213135,
                0.5000004768371582,
                0.5000002384185791
            ],
            "translation" : [
                -48.26182556152344,
                -59.11042404174805,
                34.595985412597656
            ]
        },
        {
            "name" : "Node_10",
            "rotation" : [
                0,
                0,
                -0.3826834559440613,
                0.9238795638084412
            ],
            "translation" : [
                47.17867660522461,
                -52.821327209472656,
                -88.94477081298828
            ]
        },
        {
            "name" : "Node_7",
            "rotation" : [
                0,
                0,
                -0.8660253882408142,
                0.5
            ],
            "translation" : [
                18.09818458557129,
                -69.69783782958984,
                -105.559814453125
            ]
        },
        {
            "name" : "Node_1",
            "scale" : [
                336.3834228515625,
                448.8728942871094,
                55.24894332885742
            ],
            "translation" : [
                136.860107421875,
                -64.45372009277344,
                -36.179630279541016
            ]
        }
    ],
    "meshes" : [
        {
            "name" : "Lifter_123-923_0_Parts_1",
            "primitives" : [
                {
                    "attributes" : {
                        "POSITION" : 0,
                        "NORMAL" : 1
                    },
                    "indices" : 2
                },
                {
                    "attributes" : {
                        "POSITION" : 3,
                        "NORMAL" : 4
                    },
                    "indices" : 5
                }
            ]
        }
    ],
    "accessors" : [
        {
            "bufferView" : 0,
            "componentType" : 5126,
            "count" : 125,
            "max" : [
                -16.622102737426758,
                -26.10456085205078,
                0
            ],
            "min" : [
                -32.12210464477539,
                -41.59605407714844,
                -81.32039642333984
            ],
            "type" : "VEC3"
        },
        {
            "bufferView" : 1,
            "componentType" : 5126,
            "count" : 125,
            "type" : "VEC3"
        },
        {
            "bufferView" : 2,
            "componentType" : 5123,
            "count" : 327,
            "type" : "SCALAR"
        },
        {
            "bufferView" : 3,
            "componentType" : 5126,
            "count" : 67,
            "max" : [
                -16.622102737426758,
                -28.23191261291504,
                -81.31858825683594
            ],
            "min" : [
                -32.11616134643555,
                -41.598751068115234,
                -81.53771209716797
            ],
            "type" : "VEC3"
        },
        {
            "bufferView" : 4,
            "componentType" : 5126,
            "count" : 67,
            "type" : "VEC3"
        },
        {
            "bufferView" : 5,
            "componentType" : 5123,
            "count" : 195,
            "type" : "SCALAR"
        }
    ],
    "bufferViews" : [
        {
            "buffer" : 0,
            "byteLength" : 1500,
            "byteOffset" : 0
        },
        {
            "buffer" : 0,
            "byteLength" : 1500,
            "byteOffset" : 1500
        },
        {
            "buffer" : 0,
            "byteLength" : 654,
            "byteOffset" : 3000
        },
        {
            "buffer" : 0,
            "byteLength" : 804,
            "byteOffset" : 3656
        },
        {
            "buffer" : 0,
            "byteLength" : 804,
            "byteOffset" : 4460
        },
        {
            "buffer" : 0,
            "byteLength" : 390,
            "byteOffset" : 5264
        }
    ],
    "buffers" : [
        {
            "byteLength" : 5656,
            "uri" : "data:application/octet-stream;base64,"
        }
    ]
}
