{
    "asset" : {
        "generator" : "Khronos glTF Blender I/O v3.2.43",
        "version" : "2.0"
    },
    "scene" : 0,
    "scenes" : [
        {
            "name" : "Scene",
            "nodes" : [
                0,
                6,
                8,
                9,
                10,
                11
            ]
        }
    ],
    "nodes" : [
        {
            "mesh" : 0,
            "name" : "Lifter_123-923_0_Parts_1",
            "rotation" : [
                0.7071068286895752,
                0,
                0.7071068286895752,
                4.489660379580762e-11
            ],
            "translation" : [
                100,
                -133.8488311767578,
                54.37212371826172
            ]
        },
        {
            "name" : "Node_16",
            "translation" : [
                -1.049041748046875e-05,
                0,
                -3.6954879760742188e-06
            ]
        },
        {
            "children" : [
                1
            ],
            "name" : "Node_15",
            "rotation" : [
                0.4627305269241333,
                0.823268473148346,
                -0.22264334559440613,
                0.24194912612438202
            ],
            "translation" : [
                14.898194313049316,
                85.82950592041016,
                -48.03464126586914
            ]
        },
        {
            "name" : "Node_44",
            "translation" : [
                -9.046398190548643e-06,
                -1.0980787010339554e-05,
                -99.9995346069336
            ]
        },
        {
            "name" : "Node_49"
        },
        {
            "children" : [
                3,
                4
            ],
            "name" : "Node_43",
            "rotation" : [
                0,
                0.001135537400841713,
                0,
                1
            ],
            "translation" : [
                -0.1340901106595993,
                -12.99998950958252,
                0.12365809828042984
            ]
        },
        {
            "children" : [
                2,
                5
            ],
            "name" : "Node_14",
            "rotation" : [
                -0.49999964237213135,
                0.49999964237213135,
                0.5000004768371582,
                0.5000002384185791
            ],
            "translation" : [
                -48.26182556152344,
                -59.11042404174805,
                34.595985412597656
            ]
        },
        {
            "mesh" : 1,
            "name" : "body_20",
            "rotation" : [
                0.37966787815093994,
                -0.5965337753295898,
                0.37966787815093994,
                0.596533477306366
            ],
            "translation" : [
                -30.295900344848633,
                -52.561317443847656,
                25.05522918701172
            ]
        },
        {
            "children" : [
                7
            ],
            "name" : "Node_10",
            "rotation" : [
                0,
                0,
                -0.3826834559440613,
                0.9238795638084412
            ],
            "translation" : [
                47.17867660522461,
                -52.821327209472656,
                -88.94477081298828
            ]
        },
        {
            "name" : "Node_7",
            "rotation" : [
                0,
                0,
                -0.8660253882408142,
                0.5
            ],
            "translation" : [
                18.09818458557129,
                -69.69783782958984,
                -105.559814453125
            ]
        },
        {
            "name" : "Node_1",
            "scale" : [
                336.3834228515625,
                448.8728942871094,
                55.24894332885742
            ],
            "translation" : [
                136.860107421875,
                -64.45372009277344,
                -36.179630279541016
            ]
        },
        {
            "mesh" : 2,
            "name" : "Plane",
            "rotation" : [
                0.0821009948849678,
                0.02669927477836609,
                0.07377767562866211,
                0.993530809879303
            ],
            "scale" : [
                16.479337692260742,
                26.484378814697266,
                14.707389831542969
            ],
            "translation" : [
                -17.913150787353516,
                -73.22981262207031,
                172.49966430664062
            ]
        }
    ],
    "materials" : [
        {
            "name" : "Material_22.001",
            "pbrMetallicRoughness" : {
                "baseColorFactor" : [
                    0,
                    0.42500001192092896,
                    0.42500001192092896,
                    1
                ],
                "metallicFactor" : 0
            }
        }
    ],
    "meshes" : [
        {
            "name" : "Lifter_123-923_0_Parts_1",
            "primitives" : [
                {
                    "attributes" : {
                        "POSITION" : 0,
                        "NORMAL" : 1
                    },
                    "indices" : 2
                },
                {
                    "attributes" : {
                        "POSITION" : 3,
                        "NORMAL" : 4
                    },
                    "indices" : 5
                }
            ]
        },
        {
            "name" : "body_20",
            "primitives" : [
                {
                    "attributes" : {
                        "POSITION" : 6,
                        "NORMAL" : 7
                    },
                    "indices" : 8,
                    "material" : 0
                }
            ]
        },
        {
            "name" : "Plane",
            "primitives" : [
                {
                    "attributes" : {
                        "POSITION" : 9,
                        "NORMAL" : 10,
                        "TEXCOORD_0" : 11
                    },
                    "indices" : 12
                }
            ]
        }
    ],
    "accessors" : [
        {
            "bufferView" : 0,
            "componentType" : 5126,
            "count" : 129,
            "max" : [
                -16.622102737426758,
                -26.09882354736328,
                0
            ],
            "min" : [
                -32.12210464477539,
                -41.59605407714844,
                -81.32071685791016
            ],
            "type" : "VEC3"
        },
        {
            "bufferView" : 1,
            "componentType" : 5126,
            "count" : 129,
            "type" : "VEC3"
        },
        {
            "bufferView" : 2,
            "componentType" : 5123,
            "count" : 345,
            "type" : "SCALAR"
        },
        {
            "bufferView" : 3,
            "componentType" : 5126,
            "count" : 109,
            "max" : [
                -16.622102737426758,
                -26.09882354736328,
                -81.31866455078125
            ],
            "min" : [
                -31.574491500854492,
                -41.278751373291016,
                -84.93704986572266
            ],
            "type" : "VEC3"
        },
        {
            "bufferView" : 4,
            "componentType" : 5126,
            "count" : 109,
            "type" : "VEC3"
        },
        {
            "bufferView" : 5,
            "componentType" : 5123,
            "count" : 585,
            "type" : "SCALAR"
        },
        {
            "bufferView" : 6,
            "componentType" : 5126,
            "count" : 2078,
            "max" : [
                177.38954162597656,
                -14.305740356445312,
                18.985939025878906
            ],
            "min" : [
                -76.1104507446289,
                -55.567955017089844,
                -19.073078155517578
            ],
            "type" : "VEC3"
        },
        {
            "bufferView" : 7,
            "componentType" : 5126,
            "count" : 2078,
            "type" : "VEC3"
        },
        {
            "bufferView" : 8,
            "componentType" : 5123,
            "count" : 4098,
            "type" : "SCALAR"
        },
        {
            "bufferView" : 9,
            "componentType" : 5126,
            "count" : 4,
            "max" : [
                2.5281870365142822,
                0,
                1.3166040182113647
            ],
            "min" : [
                -2.5281870365142822,
                0,
                -1.3166040182113647
            ],
            "type" : "VEC3"
        },
        {
            "bufferView" : 10,
            "componentType" : 5126,
            "count" : 4,
            "type" : "VEC3"
        },
        {
            "bufferView" : 11,
            "componentType" : 5126,
            "count" : 4,
            "type" : "VEC2"
        },
        {
            "bufferView" : 12,
            "componentType" : 5123,
            "count" : 6,
            "type" : "SCALAR"
        }
    ],
    "bufferViews" : [
        {
            "buffer" : 0,
            "byteLength" : 1548,
            "byteOffset" : 0
        },
        {
            "buffer" : 0,
            "byteLength" : 1548,
            "byteOffset" : 1548
        },
        {
            "buffer" : 0,
            "byteLength" : 690,
            "byteOffset" : 3096
        },
        {
            "buffer" : 0,
            "byteLength" : 1308,
            "byteOffset" : 3788
        },
        {
            "buffer" : 0,
            "byteLength" : 1308,
            "byteOffset" : 5096
        },
        {
            "buffer" : 0,
            "byteLength" : 1170,
            "byteOffset" : 6404
        },
        {
            "buffer" : 0,
            "byteLength" : 24936,
            "byteOffset" : 7576
        },
        {
            "buffer" : 0,
            "byteLength" : 24936,
            "byteOffset" : 32512
        },
        {
            "buffer" : 0,
            "byteLength" : 8196,
            "byteOffset" : 57448
        },
        {
            "buffer" : 0,
            "byteLength" : 48,
            "byteOffset" : 65644
        },
        {
            "buffer" : 0,
            "byteLength" : 48,
            "byteOffset" : 65692
        },
        {
            "buffer" : 0,
            "byteLength" : 32,
            "byteOffset" : 65740
        },
        {
            "buffer" : 0,
            "byteLength" : 12,
            "byteOffset" : 65772
        }
    ],
    "buffers" : [
        {
            "byteLength" : 65784,
            "uri" : "data:application/octet-stream;base64,"
        }
    ]
}
